HIERARCHY
ROOT Hips
{
	OFFSET -0.179506 -22.333345 2.821913
	CHANNELS 6 Xposition Yposition Zposition Zrotation Yrotation Xrotation 
	JOINT LeftUpLeg
	{
		OFFSET 6.951974 -9.140623 -0.681533
		CHANNELS 3 Zrotation Yrotation Xrotation
		JOINT LeftLeg
		{
			OFFSET 3.427654 -37.519855 -0.449580
			CHANNELS 3 Zrotation Yrotation Xrotation
			JOINT LeftFoot
			{
				OFFSET -1.359570 -39.796059 -4.369333
				CHANNELS 3 Zrotation Yrotation Xrotation
				JOINT LeftToe
				{
					OFFSET 2.635814 -5.579078 11.928840
					CHANNELS 3 Zrotation Yrotation Xrotation
					End Site
					{
						OFFSET 0.000000 0.000000 0.000000
					}
				}
			}
		}
	}
	JOINT RightUpLeg
	{
		OFFSET -6.767048 -9.052170 -0.431982
		CHANNELS 3 Zrotation Yrotation Xrotation
		JOINT RightLeg
		{
			OFFSET -3.829005 -38.256897 -0.885003
			CHANNELS 3 Zrotation Yrotation Xrotation
			JOINT RightFoot
			{
				OFFSET 1.577377 -39.841461 -4.231180
				CHANNELS 3 Zrotation Yrotation Xrotation
				JOINT RightToe
				{
					OFFSET -2.537174 -4.814398 12.334795
					CHANNELS 3 Zrotation Yrotation Xrotation
					End Site
					{
						OFFSET 0.000000 0.000000 0.000000
					}
				}
			}
		}
	}
	JOINT Spine
	{
		OFFSET -0.253288 10.896323 -2.669631
		CHANNELS 3 Zrotation Yrotation Xrotation
		JOINT Spine1
		{
			OFFSET 0.548704 13.518043 0.109247
			CHANNELS 3 Zrotation Yrotation Xrotation
			JOINT Spine2
			{
				OFFSET 0.145701 5.292222 2.542457
				CHANNELS 3 Zrotation Yrotation Xrotation
				JOINT Neck
				{
					OFFSET -0.277840 21.387037 -4.285703
					CHANNELS 3 Zrotation Yrotation Xrotation
					JOINT Head
					{
						OFFSET 0.515184 6.496960 5.134897
						CHANNELS 3 Zrotation Yrotation Xrotation
						End Site
						{
							OFFSET 0.000000 0.000000 0.000000
						}
					}
				}
				JOINT LeftShoulder
				{
					OFFSET 7.884473 12.174932 -3.408961
					CHANNELS 3 Zrotation Yrotation Xrotation
					JOINT LeftArm
					{
						OFFSET 9.097692 3.046888 -0.886815
						CHANNELS 3 Zrotation Yrotation Xrotation
						JOINT LeftForeArm
						{
							OFFSET 25.961220 -1.277207 -2.745643
							CHANNELS 3 Zrotation Yrotation Xrotation
							JOINT LeftHand
							{
								OFFSET 24.923361 0.898606 -0.117091
								CHANNELS 3 Zrotation Yrotation Xrotation
								End Site
								{
									OFFSET 0.000000 0.000000 0.000000
								}
							}
						}
					}
				}
				JOINT RightShoulder
				{
					OFFSET -8.175920 11.883285 -3.861528
					CHANNELS 3 Zrotation Yrotation Xrotation
					JOINT RightArm
					{
						OFFSET -9.601238 3.255117 -0.914307
						CHANNELS 3 Zrotation Yrotation Xrotation
						JOINT RightForeArm
						{
							OFFSET -25.374195 -1.332924 -2.140099
							CHANNELS 3 Zrotation Yrotation Xrotation
							JOINT RightHand
							{
								OFFSET -25.529810 0.777228 -0.555919
								CHANNELS 3 Zrotation Yrotation Xrotation
								End Site
								{
									OFFSET 0.000000 0.000000 0.000000
								}
							}
						}
					}
				}
			}
		}
	}
}
MOTION
Frames: 6
Frame Time: 0.033333
329.784393 -321.361359 89.319046 -107.581007 1.006468 97.890838 5.889560 3.831353 11.913344 -3.438721 -9.231645 21.268558 2.946108 21.735812 -46.698140 nan nan nan -10.264146 1.196884 -52.596395 8.756795 -7.696554 59.945105 4.960223 1.540185 -1.569083 nan nan nan 0.668843 -10.545514 13.948742 6.693593 -1.251589 10.717835 0.757966 -4.187195 -6.622128 -1.497877 1.223126 -7.236545 1.862558 -5.287951 -18.201711 -24.953932 2.326715 0.624484 -55.421933 -6.147128 19.479946 96.973895 -78.374776 -85.635564 12.766751 -34.308197 -12.212807 21.959489 -6.572318 4.638381 47.780661 -26.109072 11.297099 4.446672 51.067545 17.330019 -3.805100 25.077037 -22.524333 
327.294403 -320.008362 89.808372 -107.484370 -0.899340 96.392780 5.022424 4.078243 15.226501 -4.267384 -11.053071 19.761654 2.129930 20.588003 -45.212566 nan nan nan -9.347048 -2.098751 -51.696005 3.349740 -13.938924 57.833253 3.374691 -5.670975 0.698590 nan nan nan -1.079584 -10.468556 14.321295 6.196648 -1.342786 10.994332 0.987184 -4.623035 -5.790108 -1.758301 0.921360 -7.068420 2.285126 -5.105479 -18.760306 -24.087023 2.074331 1.204333 -55.479099 -6.681834 19.065149 100.533892 -79.188812 -90.154221 12.155036 -35.004270 -10.959457 21.057577 -6.419667 4.168457 48.549053 -27.101030 9.845818 6.874518 50.992931 18.381923 -2.827377 24.957197 -22.097670 
324.894318 -318.657013 90.279999 -107.134424 -2.104535 96.031195 6.295125 5.833999 16.438330 -6.168795 -10.365582 18.320367 1.581339 18.564147 -44.591026 nan nan nan -10.222438 -3.146831 -50.348595 3.241018 -13.657565 52.657732 3.686164 -5.525342 0.597496 nan nan nan -1.813532 -10.435581 14.459178 6.036296 -1.601005 10.577740 1.014386 -4.884933 -5.897884 -1.681921 1.249099 -6.083162 2.126446 -5.458497 -19.577220 -23.739993 2.584778 1.675770 -55.473792 -7.021505 19.641009 101.871014 -79.678062 -91.136773 11.741667 -35.294462 -11.010866 20.986475 -7.134531 4.242161 48.996406 -27.359328 9.728714 5.481485 50.937311 17.229238 -2.644633 24.845169 -22.729082 
322.758911 -317.053192 90.523575 -107.303711 -1.908851 95.957235 5.078038 4.200168 17.194040 -3.464930 -11.436226 19.381593 1.251110 19.532385 -44.558805 nan nan nan -9.299644 -2.271606 -48.616118 3.183872 -13.024151 45.832461 3.584062 -6.688715 -0.284960 nan nan nan -1.759375 -10.164752 13.875801 6.233198 -1.750101 11.139329 1.205209 -4.961394 -5.991355 -1.952107 1.274907 -6.359250 2.425579 -5.411168 -19.009494 -22.810388 3.454230 1.615021 -56.206924 -7.479067 20.156236 100.710196 -80.753515 -89.550180 12.185229 -35.985918 -10.868128 20.437319 -7.923204 4.069252 49.281631 -27.293014 9.977758 4.948148 51.231166 16.529847 -3.516454 25.176277 -22.914240 
320.493103 -315.716949 90.863075 -106.928010 -2.314857 95.735607 5.056111 4.529518 18.325906 -2.354862 -11.832207 18.139383 0.998707 19.207787 -44.047996 nan nan nan -9.458196 -2.348556 -46.991716 3.090283 -12.220242 40.068828 3.711968 -6.846461 0.431490 nan nan nan -1.976518 -10.217255 13.547745 6.468353 -2.076955 11.626731 1.308845 -5.056470 -6.285228 -2.113051 1.398209 -6.365388 2.222672 -5.491827 -18.834130 -22.276164 3.890250 1.949845 -56.644086 -7.806147 20.635588 99.032770 -81.614953 -88.192222 11.575473 -36.061009 -11.268423 20.114341 -8.553501 4.005123 49.400122 -27.254685 10.104483 4.256219 51.522276 15.298892 -3.373696 24.866424 -23.392300 
318.226410 -314.298523 91.152588 -106.948205 -2.636371 95.467394 4.884670 4.877957 18.879874 -1.665178 -10.828085 18.795468 0.899149 19.043986 -44.000533 nan nan nan -9.483173 -2.166200 -45.427531 3.024703 -11.261904 34.759580 3.888600 -6.587024 1.119079 nan nan nan -1.926968 -10.241869 13.131603 6.384789 -2.327346 12.554625 1.169802 -5.156578 -6.924013 -2.040478 2.057597 -6.227645 1.879974 -5.865907 -18.888300 -22.188427 4.426482 2.145556 -56.334636 -7.657849 20.497478 98.939315 -81.337283 -86.651947 7.580715 -36.236763 -7.213430 20.131127 -8.833028 4.215219 50.012854 -26.985349 10.024277 2.199829 51.663894 13.112423 -1.037939 24.860550 -23.148530 
